HIERARCHY
ROOT Hips
{
    OFFSET 11.353728294372559 90.41301345825195 -17.972734451293945
    CHANNELS 6 Xposition Yposition Zposition Zrotation Xrotation Yrotation
    JOINT RightUpLeg
    {
        OFFSET -11.353728294372559 0.0 0.0
        CHANNELS 3 Zrotation Xrotation Yrotation
        JOINT RightLeg
        {
            OFFSET 0.0 -45.481178283691406 0.0
            CHANNELS 3 Zrotation Xrotation Yrotation
            JOINT RightFoot
            {
                OFFSET 0.0 -44.93183517456055 0.0
                CHANNELS 3 Zrotation Xrotation Yrotation
                End Site
                {
                    OFFSET 0.0 0.0 17.972734451293945
                }
            }
        }
    }
    JOINT LeftUpLeg
    {
        OFFSET 11.353728294372559 0.0 0.0
        CHANNELS 3 Zrotation Xrotation Yrotation
        JOINT LeftLeg
        {
            OFFSET 0.0 -45.481178283691406 0.0
            CHANNELS 3 Zrotation Xrotation Yrotation
            JOINT LeftFoot
            {
                OFFSET 0.0 -44.93183517456055 0.0
                CHANNELS 3 Zrotation Xrotation Yrotation
                End Site
                {
                    OFFSET 0.0 0.0 17.972734451293945
                }
            }
        }
    }
    JOINT Spine
    {
        OFFSET 0.0 23.922914505004883 0.0
        CHANNELS 3 Zrotation Xrotation Yrotation
        JOINT Spine3
        {
            OFFSET 0.0 24.44933319091797 0.0
            CHANNELS 3 Zrotation Xrotation Yrotation
            JOINT Neck
            {
                OFFSET 0.0 9.903070449829102 0.0
                CHANNELS 3 Zrotation Xrotation Yrotation
                End Site
                {
                    OFFSET 0.0 3.961228132247925 0.0
                }
            }
            JOINT LeftArm
            {
                OFFSET 13.061370849609375 0.0 0.0
                CHANNELS 3 Zrotation Xrotation Yrotation
                JOINT LeftForeArm
                {
                    OFFSET 27.749658584594727 0.0 0.0
                    CHANNELS 3 Zrotation Xrotation Yrotation
                    JOINT LeftHand
                    {
                        OFFSET 16.831256866455078 0.0 0.0
                        CHANNELS 3 Zrotation Xrotation Yrotation
                        End Site
                        {
                            OFFSET 6.7325029373168945 0.0 0.0
                        }
                    }
                }
            }
            JOINT RightArm
            {
                OFFSET -13.061370849609375 0.0 0.0
                CHANNELS 3 Zrotation Xrotation Yrotation
                JOINT RightForeArm
                {
                    OFFSET -27.749658584594727 0.0 0.0
                    CHANNELS 3 Zrotation Xrotation Yrotation
                    JOINT RightHand
                    {
                        OFFSET -16.831256866455078 0.0 0.0
                        CHANNELS 3 Zrotation Xrotation Yrotation
                        End Site
                        {
                            OFFSET -6.7325029373168945 0.0 0.0
                        }
                    }
                }
            }
        }
    }
}
MOTION
Frames: 8
Frame Time: 0.03333333333333333
0.0004959316574968398 93.5697021484375 -0.0008911138284020126 -7.068728388543164 -7.196947375486352 -42.744348708499274 0.4352786761613868 20.657647247742787 -0.8372027151937286 1.5975014786549613 12.229832966716998 -0.8083722561516591 3.1805546814635168e-15 3.9756933518293955e-16 -1.5902773407317584e-15 -2.5783962381164023 19.0077597021515 0.19932675608247427 0.04842592575751043 9.612842506175781 0.08741100197095822 -8.000205165215913e-32 -3.180554681463516e-15 -2.8823776800763114e-15 -6.417554306359176 21.24129305982611 1.6207711039863357 -1.1754685551977276e-07 -6.091656133212895e-07 0.06339621050088404 2.3574469391400514 13.30104252712368 -167.44444611393757 115.86756787495219 -28.12561659068861 -175.8306284327164 -2.1438076312109124e-06 -4.4694238081510913e-07 27.63644984614502 0.0 0.0 0.0 -110.47789010519921 -30.864967379362135 176.23113863150164 -2.749958332021453e-06 -1.2535244319517452e-06 -30.276592377376698 4.621743521501673e-15 -1.603489397338534e-32 -3.975693351829396e-16
0.0005226960638538003 93.56970977783203 -0.0008924445719458163 -7.152690145880656 -7.0583999403140725 -43.380484989056 0.23487116910104955 20.457091240548756 -0.8411679826865479 1.8394929983255595 12.369334612048863 -0.8769831484779678 0.0 0.0 4.572047354603805e-15 -2.6923770727511513 19.219441359079973 0.16160312307645813 0.00023776776914169974 9.45214768991893 0.07507212896026737 3.620782510119271e-33 1.9878466759146985e-16 -2.0872390097104334e-15 -6.333060337174806 21.04799184031561 1.4916056470549537 3.372426547732023e-07 2.4776652227893317e-08 -0.0381054518300384 2.318008322700713 13.243608908055753 -167.47045658989123 116.1455188513379 -28.012456564326683 -175.82106201672138 -1.934909290502969e-07 -1.081102794768825e-06 27.17716040727087 -3.1805546814635164e-15 6.361109362927032e-15 6.361109362927032e-15 -109.6096412291556 -29.564231061128442 176.5039280429659 -2.603169002704427e-06 1.7042703934165575e-07 -30.037750113158694 -6.1623246953355635e-15 -1.0689929315590228e-32 1.987846675914698e-16
0.0005057290545664728 93.56970977783203 -0.000898025231435895 -7.225609182707236 -6.810905909734435 -43.93567796980204 0.3171195542243584 20.342818690713244 -0.8713334468281977 1.7455491893105253 12.381005587081034 -0.8780201657311537 -2.758691436281349e-33 7.951386703658792e-16 3.975693351829396e-16 -2.720276643954389 19.141045726916396 0.16447333221697563 -0.05994921892311068 9.300593602993985 0.08527461045759589 -7.951386703658791e-16 -5.517382872562698e-33 7.951386703658791e-16 -6.057008460917324 20.816784784834912 1.3712759107738712 2.558225863757568e-07 -1.472143537242709e-07 -0.008526541904772363 2.37547889214316 13.271085243555518 -167.46967875314417 116.24926979847032 -27.802679533363357 -175.9079403435385 1.2237634962649127e-06 -5.131580986931191e-06 26.649708309581005 6.3611093629270335e-15 0.0 0.0 -109.24842123935362 -29.68650417329271 176.7166478650774 1.1013484176753552e-06 -1.737631435094454e-06 -30.19993268574387 6.3611093629270335e-15 1.5902773407317584e-15 -1.987846675914699e-16
0.0004858496249653399 93.56970977783203 -0.0009097173460759223 -7.279466250753688 -6.683257805556727 -44.64311908484065 0.3398775025059538 20.23678920084171 -0.9238753441890124 1.2475593182425613 12.246684017259042 -0.7957155813356395 3.1805546814635168e-15 -3.1805546814635168e-15 6.1623246953355635e-15 -2.86635600986809 19.07772008779022 0.16544532958183802 -0.14045427716241443 9.257722162975623 0.09857931380239164 -7.951386703658791e-16 -3.3793393490549868e-15 2.3854160110976376e-15 -6.072006341321979 20.70128963082249 1.319127434233012 -2.016823516538339e-07 -7.208153455270817e-07 -0.181299625751354 2.39906067742283 13.341494510353048 -168.18431601668945 116.44264704172203 -27.08215645017247 -176.09139197435914 1.3905918431721891e-06 -3.1450660252695666e-06 26.343181900129267 -6.3611093629270335e-15 0.0 0.0 -109.02161039281323 -29.706805783965756 176.85386865100548 4.106586745862959e-06 1.2406795112233856e-06 -30.300287193947522 1.6275494659051586e-15 -4.940859466933588e-33 -3.478731682850721e-16
0.0004896504688076675 93.56967163085938 -0.0008956710807979107 -7.395650389991318 -6.355928875985402 -45.354613688233414 0.5444630851754916 20.029239657304327 -0.950507213760509 0.7403286323796228 12.162198946441078 -0.7044434148685904 2.758691436281349e-33 -3.9756933518293955e-16 7.951386703658791e-16 -2.8969877707766876 18.95420091561699 0.20700662320153687 -0.09394496679741282 9.388980988507472 0.11268141514498922 3.9756933518293984e-16 -2.9817700138720468e-15 8.94531004161614e-15 -5.853811854421113 20.44572160195994 1.2622910057537458 -2.5590753512671864e-07 -7.077031493078906e-07 -0.3858506594862771 2.335070618805094 13.66621600418965 -168.40642599757862 116.45128664216331 -27.179507472639408 -176.33744777568216 2.3526113777320785e-06 -6.3266526850362845e-06 25.78590200104234 -6.3611093629270335e-15 6.3611093629270335e-15 -6.3611093629270335e-15 -109.5086004025185 -31.43792400919431 176.59426824900842 -2.489804277269654e-06 -2.0741673789752166e-06 -29.964383063454747 -5.851723652223893e-15 -1.5902773407317588e-15 1.9878466759146975e-16
0.00045778806088492274 93.5696792602539 -0.0009052706300280988 -7.1377074370875375 -6.073430388980122 -45.95616560557305 0.3360045925907738 19.508665337487326 -0.9216550691931011 0.5513985609649057 12.255731696729741 -0.6683202263409005 2.758691436281349e-33 3.975693351829397e-16 -7.951386703658794e-16 -3.106191122170374 18.459131782011706 0.20675425837160757 -0.1753587387558189 9.52869787835666 0.13060795566032732 -3.975693351829396e-16 -1.987846675914698e-16 -6.957463365701443e-16 -5.938362326192619 20.183940979698978 1.209156289844586 5.187905115414005e-07 5.459716711550392e-07 -0.5590307956057837 2.129295493240954 13.642505715684818 -168.8419882956906 115.99076867788627 -25.351246875998964 -176.59564020769727 2.91352954650722e-06 -6.572660492141924e-06 25.91603520872704 0.0 0.0 6.3611093629270335e-15 -109.32518458801037 -30.48255335630037 176.76347575618377 -3.4438655096372817e-06 -2.8646180439293836e-06 -29.9909056663845 -9.529240002666084e-15 -1.8183655974926361e-31 2.1866313435061676e-15
0.00041742861503735185 93.56967163085938 -0.0009174869628623128 -7.057999056163158 -5.836963978098308 -46.565165213247674 -0.05336797245791774 19.146831627226813 -0.755045196791074 0.7553303662674911 12.251845196578937 -0.620862515005727 1.5902773407317584e-15 -4.1380371544220234e-32 -2.9817700138720468e-15 -3.169128524897383 18.373364837945832 0.24695676172915332 -0.5030650162286004 9.334830943210955 0.20127565163143746 -3.975693351829396e-16 3.4483642953516864e-34 -9.93923337957349e-17 -5.908313995196164 20.20313212885115 1.2232862557348751 3.5253749207713777e-07 1.2699697818235984e-06 -0.7114528449063442 1.8878821283051406 13.490990600140497 -169.2405096899699 116.25601328521373 -24.843083425103178 -176.6869120189717 3.9456805114730294e-07 -2.4828219081552633e-06 26.080816058429292 -9.54166404439055e-15 -6.361109362927033e-15 -6.3611093629270335e-15 -109.73927306071037 -30.365611111727254 176.47655033405226 3.3462257388216285e-06 -2.9053754152170336e-06 -29.813961284906338 1.6399735076296259e-15 -1.6896696745274934e-15 -1.987846675914698e-15
0.00040234890184365213 93.56968688964844 -0.0009293034672737122 -6.828106599185123 -5.621570295736065 -47.163711034799164 -0.45238067057352 18.894161709061734 -0.6459507557080422 0.6879407207559337 12.058669607700256 -0.537063583840838 -1.5902773407317584e-15 3.1805546814635168e-15 4.373262687012335e-15 -3.419702066421952 17.96737202005719 0.2903785188494643 -0.39848982474629985 9.27836690138829 0.20773081886815967 2.3854160110976376e-15 -3.1805546814635168e-15 -1.888454342118963e-15 -5.9510946643226434 19.908338777615672 1.1891932267728251 2.773833117868133e-07 -6.479541687427643e-07 -0.9366648160794362 1.6659043307624013 13.295953797905149 -170.22172670094065 116.04071101232469 -23.829621227747246 -176.89240305569015 1.851171644269849e-06 3.073804895529694e-06 25.873761136620168 3.1805546814635168e-15 6.3611093629270335e-15 -1.7655625192200634e-31 -109.36778899889205 -27.86632545971552 176.9426275111591 2.591837101704902e-06 -2.4566170804949104e-06 -29.685022840303994 -9.93923337957349e-16 0.0 0.0
